# xmcd
#
# Track frame offsets:
#  150
#  16282
#  32215
#  48375
#  57132
#  66957
#  81362
#  92212
#  109860
#  118915
#
# Disc length: 1705 seconds
#
# Revision: 0
# Processed by: cddbd v1.5.1PL2 Copyright (c) Steve Scherf et al.
# Submitted via: Collectorz.com_Music_Collector 6.10
#
DISCID=8806a70a
DTITLE=Billy and Terry Smith - Bill Monroe Tribute
DYEAR=1900
DGENRE=Bluegrass
TTITLE0=Muleskinner Blues
TTITLE1=Put My Little Shoes Away
TTITLE2=Jerusalem Ridge
TTITLE3=Uncle Pen
TTITLE4=Thank God For Kentucky
TTITLE5=Walk Softly On This Heart of Mine
TTITLE6=He'll Take You In
TTITLE7=Scotland
TTITLE8=Wicked Path Of Sin
TTITLE9=Blue Moon of Kentucky
EXTD=
EXTT0=
EXTT1=
EXTT2=
EXTT3=
EXTT4=
EXTT5=
EXTT6=
EXTT7=
EXTT8=
EXTT9=
PLAYORDER=
